REM DIRINDEX 1\2,1\3\7,1\3\8,1\4\9,1\4\10,1\4\11,1\5\12,1\5\13,1\5\14,1\6\15,1\6\16,1\6\17
REM DIRNAME "folder01","folder02","folder03","folder04","folder05","folder06","folder07","folder08","folder09","folder10","folder11","folder12","folder13","folder14","folder15","folder16","folder17"
TITLE ""
FILE "2Q_j_1663-1676.mp3" MP3
  TRACK 01 AUDIO
    TITLE "0:"
    INDEX 01 00:00:00
  TRACK 02 AUDIO
    TITLE "9:cjc174_1209"
    INDEX 01 00:00:16
  TRACK 03 AUDIO
    TITLE "0:"
    INDEX 01 00:01:53
  TRACK 04 AUDIO
    TITLE "10:cjc174_1210"
    INDEX 01 00:02:29
  TRACK 05 AUDIO
    TITLE "0:"
    INDEX 01 00:04:30
  TRACK 06 AUDIO
    TITLE "11:cjc174_1211"
    INDEX 01 00:05:00
  TRACK 07 AUDIO
    TITLE "0:"
    INDEX 01 00:09:68
  TRACK 08 AUDIO
    TITLE "9:cjc174_1212"
    INDEX 01 00:10:38
  TRACK 09 AUDIO
    TITLE "0:"
    INDEX 01 00:11:63
  TRACK 10 AUDIO
    TITLE "10:cjc174_1213"
    INDEX 01 00:12:33
  TRACK 11 AUDIO
    TITLE "0:"
    INDEX 01 00:15:51
  TRACK 12 AUDIO
    TITLE "11:cjc174_1214"
    INDEX 01 00:16:19
  TRACK 13 AUDIO
    TITLE "0:"
    INDEX 01 00:19:57
  TRACK 14 AUDIO
    TITLE "9:cjc174_1215"
    INDEX 01 00:20:27
  TRACK 15 AUDIO
    TITLE "0:"
    INDEX 01 00:21:44
  TRACK 16 AUDIO
    TITLE "10:cjc174_1216"
    INDEX 01 00:22:18
  TRACK 17 AUDIO
    TITLE "0:"
    INDEX 01 00:24:50
  TRACK 18 AUDIO
    TITLE "11:cjc174_1217"
    INDEX 01 00:25:20
  TRACK 19 AUDIO
    TITLE "0:"
    INDEX 01 00:30:43
  TRACK 20 AUDIO
    TITLE "9:cjc174_1218"
    INDEX 01 00:31:17
  TRACK 21 AUDIO
    TITLE "0:"
    INDEX 01 00:33:29
  TRACK 22 AUDIO
    TITLE "10:cjc174_1219"
    INDEX 01 00:34:01
  TRACK 23 AUDIO
    TITLE "0:"
    INDEX 01 00:36:53
  TRACK 24 AUDIO
    TITLE "11:cjc174_1220"
    INDEX 01 00:37:21
  TRACK 25 AUDIO
    TITLE "0:"
    INDEX 01 00:42:64
  TRACK 26 AUDIO
    TITLE "9:cjc174_1221"
    INDEX 01 00:43:34
  TRACK 27 AUDIO
    TITLE "0:"
    INDEX 01 00:44:72
  TRACK 28 AUDIO
    TITLE "10:cjc174_1222"
    INDEX 01 00:45:44
  TRACK 29 AUDIO
    TITLE "0:"
    INDEX 01 00:49:32
  TRACK 30 AUDIO
    TITLE "11:cjc174_1223"
    INDEX 01 00:50:02
  TRACK 31 AUDIO
    TITLE "0:"
    INDEX 01 00:54:41
  TRACK 32 AUDIO
    TITLE "9:cjc174_1224"
    INDEX 01 00:55:15
  TRACK 33 AUDIO
    TITLE "0:"
    INDEX 01 00:56:34
  TRACK 34 AUDIO
    TITLE "10:cjc174_1225"
    INDEX 01 00:57:06
  TRACK 35 AUDIO
    TITLE "0:"
    INDEX 01 01:01:18
  TRACK 36 AUDIO
    TITLE "11:cjc174_1226"
    INDEX 01 01:01:61
  TRACK 37 AUDIO
    TITLE "0:"
    INDEX 01 01:04:42
  TRACK 38 AUDIO
    TITLE "9:cjc174_1227"
    INDEX 01 01:05:14
  TRACK 39 AUDIO
    TITLE "0:"
    INDEX 01 01:06:50
  TRACK 40 AUDIO
    TITLE "10:cjc174_1228"
    INDEX 01 01:07:20
  TRACK 41 AUDIO
    TITLE "0:"
    INDEX 01 01:09:10
  TRACK 42 AUDIO
    TITLE "11:cjc174_1229"
    INDEX 01 01:09:57
  TRACK 43 AUDIO
    TITLE "0:"
    INDEX 01 01:13:03
  TRACK 44 AUDIO
    TITLE "9:cjc174_1230"
    INDEX 01 01:13:48
  TRACK 45 AUDIO
    TITLE "0:"
    INDEX 01 01:14:73
  TRACK 46 AUDIO
    TITLE "10:cjc174_1231"
    INDEX 01 01:15:45
  TRACK 47 AUDIO
    TITLE "0:"
    INDEX 01 01:20:60
  TRACK 48 AUDIO
    TITLE "11:cjc174_1232"
    INDEX 01 01:21:30
  TRACK 49 AUDIO
    TITLE "0:"
    INDEX 01 01:25:07
  TRACK 50 AUDIO
    TITLE "9:cjc174_1233"
    INDEX 01 01:25:58
  TRACK 51 AUDIO
    TITLE "0:"
    INDEX 01 01:27:00
  TRACK 52 AUDIO
    TITLE "10:cjc174_1234"
    INDEX 01 01:27:45
  TRACK 53 AUDIO
    TITLE "0:"
    INDEX 01 01:29:36
  TRACK 54 AUDIO
    TITLE "11:cjc174_1235"
    INDEX 01 01:30:04
  TRACK 55 AUDIO
    TITLE "0:"
    INDEX 01 01:33:61
  TRACK 56 AUDIO
    TITLE "9:cjc174_1236"
    INDEX 01 01:34:39
  TRACK 57 AUDIO
    TITLE "0:"
    INDEX 01 01:36:65
  TRACK 58 AUDIO
    TITLE "10:cjc174_1237"
    INDEX 01 01:37:35
  TRACK 59 AUDIO
    TITLE "0:"
    INDEX 01 01:39:30
  TRACK 60 AUDIO
    TITLE "11:cjc174_1238"
    INDEX 01 01:40:00
  TRACK 61 AUDIO
    TITLE "0:"
    INDEX 01 01:43:10
  TRACK 62 AUDIO
    TITLE "9:cjc174_1239"
    INDEX 01 01:43:57
  TRACK 63 AUDIO
    TITLE "0:"
    INDEX 01 01:44:71
  TRACK 64 AUDIO
    TITLE "10:cjc174_1240"
    INDEX 01 01:45:41
  TRACK 65 AUDIO
    TITLE "0:"
    INDEX 01 01:47:30
  TRACK 66 AUDIO
    TITLE "11:cjc174_1241"
    INDEX 01 01:48:00
  TRACK 67 AUDIO
    TITLE "0:"
    INDEX 01 01:51:18
  TRACK 68 AUDIO
    TITLE "9:cjc174_1242"
    INDEX 01 01:51:71
  TRACK 69 AUDIO
    TITLE "0:"
    INDEX 01 01:53:21
  TRACK 70 AUDIO
    TITLE "10:cjc174_1243"
    INDEX 01 01:53:70
  TRACK 71 AUDIO
    TITLE "0:"
    INDEX 01 01:55:61
  TRACK 72 AUDIO
    TITLE "11:cjc174_1244"
    INDEX 01 01:56:31
  TRACK 73 AUDIO
    TITLE "0:"
    INDEX 01 01:59:47
  TRACK 74 AUDIO
    TITLE "9:cjc174_1245"
    INDEX 01 02:00:17
  TRACK 75 AUDIO
    TITLE "0:"
    INDEX 01 02:02:33
  TRACK 76 AUDIO
    TITLE "10:cjc174_1246"
    INDEX 01 02:03:11
  TRACK 77 AUDIO
    TITLE "0:"
    INDEX 01 02:05:41
  TRACK 78 AUDIO
    TITLE "11:cjc174_1247"
    INDEX 01 02:06:09
  TRACK 79 AUDIO
    TITLE "0:"
    INDEX 01 02:09:63
  TRACK 80 AUDIO
    TITLE "9:cjc174_1248"
    INDEX 01 02:10:35
  TRACK 81 AUDIO
    TITLE "0:"
    INDEX 01 02:11:65
  TRACK 82 AUDIO
    TITLE "10:cjc174_1249"
    INDEX 01 02:12:36
  TRACK 83 AUDIO
    TITLE "0:"
    INDEX 01 02:14:64
  TRACK 84 AUDIO
    TITLE "11:cjc174_1250"
    INDEX 01 02:15:34
  TRACK 85 AUDIO
    TITLE "0:"
    INDEX 01 02:19:71
